Patient4_TMGait_0pt4_02_left_13_EMG.mot
version=1
nRows=20
nColumns=33
inDegrees=no
endheader
time	1LAddLong	2LGlutMax	3LGlutMed	4LIliopsoas	5LSemiMemb	6LBicFemLong	7LRecFem	8LVastMed	9LVastLat	10LGasMed	11LTibAnt	12lTibPost	13LPeroneusLong	14LSol	15LExtDigLong	16LFlexDigLong	17RAddLong	18RGlutMax	19RGlutMed	20RIliopsoas	21RSemiMemb	22RBicFemLong	23RRecFem	24RVastMed	25RVastLat	26RGasMed	27RTibAnt	28RTibPost	29RPeroneusLong	30RSol	31RExtDigLong	32RFlexDigLong
17.807	-0.006866	-0.086365	0.074768	-0.003052	0.0354	0.14526	-0.66666	-0.023956	-0.082703	-0.005341	0.25864	-0.046997	-0.060883	-0.22736	0.041656	-0.21408	-0.063934	0.18753	0.075989	0.26474	0.039978	0.016937	0.3157	0.1152	-0.005951	0.010071	-0.15213	-0.004578	0.080109	0.049591	0.000305	-0.009308
17.808	-0.007172	-0.066376	-0.12253	-0.004272	0.001526	0.23315	-0.65781	-0.020142	-0.070648	-0.003357	0.38864	-0.048065	-0.15854	-0.12955	0.007935	-0.41077	-0.081787	0.11581	0.026855	0.21469	0.083313	0.20035	0.31067	0.064087	-0.02182	0.001221	0.20233	-0.003357	0.045471	0.093231	-0.006561	-0.011749
17.809	-0.000153	-0.059357	-0.32105	0.010071	-0.007019	0.26504	-0.55054	-0.016022	-0.017853	-0.022278	0.17792	-0.058746	-0.23285	0	0.18021	-0.29282	-0.081787	0.081177	0.10056	0.14221	0.080109	0.20874	0.34805	0.075531	-0.014191	0.000153	0.6012	-0.00412	0.056305	-0.019836	-0.003967	-0.012817
17.81	0.001221	-0.085907	-0.37079	-0.008545	0.014954	0.31555	-0.48782	-0.01709	0.099335	-0.055542	-0.000458	-0.059052	-0.10757	0.26794	0.016174	0.73746	-0.072784	0.006866	0.016632	0.040283	0.075989	0.14786	0.37186	0.076904	-0.019226	-0.001678	0.18936	-0.003204	0.2095	-0.096283	-0.007629	-0.014038
17.811	-0.011444	-0.13519	-0.25772	0.020752	-0.00061	0.35858	-0.47134	0.001373	0.15472	-0.08194	-0.07431	-0.058899	0.085754	0.72372	0.063324	0.27359	-0.066071	-0.054169	-0.010681	-0.065308	0.06485	0.13245	0.31921	0.049896	0.003967	-0.001831	-0.97611	-0.006561	0.13336	0.032501	-0.004425	-0.016479
17.812	-0.006714	-0.15854	-0.39185	0.00412	-0.020142	0.29266	-0.42099	0.019684	0.16724	-0.12619	0.1619	-0.046539	0.067749	1.0472	0.13794	-0.32257	-0.083771	-0.078888	-0.002594	-0.20004	0.041809	0.13977	0.3009	0.084381	-0.005035	0.000153	-0.65964	-0.002289	-0.064392	0.067444	-0.005798	-0.011292
17.813	-0.006561	-0.14587	-0.26566	0.007629	-0.040283	0.26215	-0.33417	0.015717	0.14374	-0.13596	0.22842	-0.013885	0.23483	1.0866	0.78964	-1.1705	-0.077057	-0.083771	0.028076	-0.25574	0.014343	0.11459	0.28931	0.080872	0.009003	0.016785	-0.36896	0.000763	0.059967	-0.10925	-0.002289	-0.003967
17.814	-0.007019	-0.041962	-0.10147	0.017548	-0.039978	-0.005798	-0.27023	0.038452	0.13092	-0.075073	-0.075226	-0.042267	0.12665	1.0004	0.83038	1.1806	-0.019989	-0.074921	0.005035	-0.18097	-0.011749	0.088043	0.28931	0.044098	-0.003662	0.00946	0.36285	-0.001068	0.067902	-0.098877	0.002136	-0.010376
17.815	0.002594	0.018921	-0.06958	0.010071	-0.032501	-0.34973	-0.32501	0.059357	0.054016	0.078125	-0.2385	-0.036774	-0.075836	0.67535	-0.56458	0.53299	0.010986	-0.063477	0.20264	-0.15686	-0.026245	0.050507	0.31555	-0.042572	-0.012665	-0.011902	0.63767	-0.010071	-0.20432	0.17456	-0.003815	-0.005493
17.816	0.009308	-0.037689	-0.25787	0.022736	0.009003	-0.16525	-0.42908	0.079498	0.029755	0.065613	-0.22232	0.017853	-0.005341	0.21255	-1.1591	0.29892	0.065613	-0.086823	0.26535	-0.093842	-0.048828	0.019684	0.29373	-0.086517	-0.003967	-0.010376	0.39444	-0.007935	-0.28366	0.27283	-0.009003	-0.00824
17.817	0.014038	0.02594	-0.050507	0.035095	0.092468	0.040588	-0.63049	0.054474	0.10834	0.075989	-0.18295	-0.16708	-0.013275	-0.25024	-0.70358	-0.024109	0.10666	-0.11704	0.10284	-0.063324	-0.072021	0.015717	0.29785	-0.18127	-0.01297	-0.011597	0.10071	-0.008087	-0.25772	0.19012	-0.004883	-0.00946
17.818	0.015106	0.040894	-0.09552	0.024261	0.066681	-0.007477	-0.78293	0.001831	0.1622	0.085297	-0.15762	-0.050201	0.062256	-0.96085	-0.60944	-0.29923	0.20538	-0.15472	-0.15533	0.067596	-0.087891	-0.014801	0.30395	-0.20737	-0.012054	-0.009766	-0.30258	-0.000458	-0.12741	0.19669	-0.005646	-0.006561
17.819	0.019684	0.045013	0.029297	-0.024872	0.005341	-0.061646	-0.85525	-0.042419	0.16647	0.060272	-0.089569	-0.047913	0.044861	-1.2189	-0.41092	-0.16159	0.21637	-0.16663	-0.2005	0.099335	-0.11536	-0.039825	0.29938	-0.21835	-0.021515	-0.005341	-0.24719	-0.005188	-0.044098	0.13214	-0.002136	-0.013428
17.82	0.013123	0.092621	0.084229	-0.019836	-0.028992	-0.27618	-0.62073	-0.066986	0.017242	-0.020752	-0.069275	-0.080261	0.017395	-0.96939	0.16571	0.26108	0.12222	-0.18829	-0.19028	0.25223	-0.12894	-0.043182	0.29098	-0.17685	-0.0177	-0.00885	-0.13916	-0.006714	0.080872	0.092621	-0.000153	-0.013275
17.821	0.003815	0.13184	0.20248	-0.000458	-0.019836	-0.39764	-0.38803	-0.064697	-0.065155	-0.1059	-0.14862	0.13901	-0.00824	-0.67749	0.044861	-0.037384	0.040588	-0.14297	-0.043488	0.20477	-0.13947	-0.053406	0.3093	-0.14236	-0.007172	-0.013428	0.026398	-0.002136	0.093689	0.1445	-0.00473	-0.007629
17.822	-0.007019	0.098267	0.055237	0.01297	0.028229	-0.17456	-0.2713	-0.026703	-0.081787	0.024414	-0.19943	-0.024567	-0.061646	-0.69519	0.86472	-0.26138	-0.013428	-0.17273	0.046387	0.15243	-0.13702	-0.083313	0.30441	-0.12955	-0.012207	-0.002136	-0.60699	-0.005646	0.085449	0.092773	-0.007324	-0.014954
17.823	-0.01297	0.10513	0.061188	0.016022	0.053253	-0.079498	-0.25879	-0.028687	-0.06485	0.12283	-0.15289	-0.064545	-0.010834	-0.67642	0.002289	-0.19592	-0.044861	-0.11688	0.048828	0.067902	-0.11902	-0.087891	0.30609	-0.11749	-0.022125	-0.018616	-0.49164	-0.002594	0.073853	-0.013885	-0.005951	-0.019531
17.824	-0.002899	0.16159	0.05661	0.014801	0.027161	-0.062256	-0.32776	-0.029907	-0.032349	-0.082397	-0.043488	-0.056915	0.050964	-0.36072	0.72601	-0.052795	-0.068207	-0.17975	-0.04837	0.12421	-0.10559	-0.041809	0.30258	-0.19867	-0.015411	-0.018005	-0.38086	-0.001373	-0.001221	-0.050659	-0.009308	-0.01236
17.825	0.002441	0.29648	-0.019226	0.006409	0.015564	0.006714	-0.37949	0.001068	0.014038	-0.10956	0.45837	-0.042877	-0.035095	-0.053864	0.73227	-0.025482	-0.052643	-0.1152	-0.024872	0.013733	-0.11215	-0.018463	0.36087	-0.17914	-0.026703	-0.009003	-0.046997	-0.002289	-0.025787	-0.13336	-0.000458	-0.013275
17.826	-0.002289	0.39459	0.050049	-0.003815	0.038757	0.031281	-0.40176	0.007324	-0.016022	-0.051727	1.0391	-0.075378	-0.14114	0.42343	0.32196	-0.024872	-0.047455	-0.086975	-0.028534	-0.0914	-0.10117	-0.082703	0.35934	-0.088806	-0.018616	-0.001373	0.051727	-0.006256	-0.14374	-0.215	-0.007935	-0.005798
